# xmcd
#
# Track frame offsets: 
#        150
#        32144
#        54179
#        69616
#        87231
#        112554
#        126385
#        149502
#        177648
#
# Disc length: 2644 seconds
#
# Revision: 0
# Processed by: cddbd v1.5.2PL0 Copyright (c) Steve Scherf et al.
# Submitted via: ExactAudioCopy v1.3
#
DISCID=7c0a5209
DTITLE=Bridget Kelly Band - Bone Rattler [disk 2]
DYEAR=2017
DGENRE=Electric Blues
TTITLE0=The Dark Night
TTITLE1=Mr. Gaines
TTITLE2=In My Sorrow
TTITLE3=I'm so Tired
TTITLE4=Hambone
TTITLE5=Bad Tornado
TTITLE6=Cell Phone Blues
TTITLE7=Cat's out of the Bag
TTITLE8=Your Limozeen
EXTD=
EXTT0=
EXTT1=
EXTT2=
EXTT3=
EXTT4=
EXTT5=
EXTT6=
EXTT7=
EXTT8=
PLAYORDER=
